# xmcd
#
# Track frame offsets:
#	150
#	17170
#	40080
#	52752
#	63812
#	79022
#	94597
#	107707
#	120557
#	134727
#	150465
#	170812
#
# Disc length: 2470 seconds
#
# Revision: 1
# Processed by: cddbd v1.5.2PL0 Copyright (c) Steve Scherf et al.
# Submitted via: audiograbber 1.83.01
#
DISCID=9109a40c
DTITLE=Rusty Kershaw - Cajun in the Blues County
DYEAR=1970
DGENRE=Country
TTITLE0=That Don't Leave Much Time to Fool Around
TTITLE1=This Day and Time
TTITLE2=Fisherman's Luck
TTITLE3=Keep On Trying
TTITLE4=Sweet Peace of Mind
TTITLE5=The Country Boy
TTITLE6=Love City
TTITLE7=The Country Singer
TTITLE8=I'm Going to Louisiana
TTITLE9=What'd I Say
TTITLE10=Bad Luck Blues
TTITLE11=Do Me Right Now
EXTD=
EXTT0=
EXTT1=
EXTT2=
EXTT3=
EXTT4=
EXTT5=
EXTT6=
EXTT7=
EXTT8=
EXTT9=
EXTT10=
EXTT11=
PLAYORDER=
